<svg xmlns="http://www.w3.org/2000/svg" xmlns:xlink="http://www.w3.org/1999/xlink" width="4" height="24" viewBox="0 0 4 24">
  <defs>
    <style>
      .cls-1 {
        fill: #cacaca;
        fill-rule: evenodd;
        opacity: 0.6;
        filter: url(#filter);
      }
    </style>
    <filter id="filter" x="716" y="667" width="4" height="24" filterUnits="userSpaceOnUse">
      <feFlood result="flood" flood-color="#e3e3dd"/>
      <feComposite result="composite" operator="in" in2="SourceGraphic"/>
      <feBlend result="blend" in2="SourceGraphic"/>
    </filter>
  </defs>
  <path id="arrow.svg" class="cls-1" d="M718.139,667.3a23.632,23.632,0,0,1,1.523,10.114,30.383,30.383,0,0,1-1.059,6.123s1.6,0.6,1.4,1a44.693,44.693,0,0,1-3.983,6.479c-0.214-.131.431-4.894,0.519-7.575,0.011-.354,1.22-0.136,1.22-0.136a31.856,31.856,0,0,0,1.06-6.532,36.542,36.542,0,0,0-1.439-9.058c-0.185-.665.554-0.969,0.759-0.412" transform="translate(-716 -667)"/>
</svg>
