<svg id="circle-right.svg" xmlns="http://www.w3.org/2000/svg" xmlns:xlink="http://www.w3.org/1999/xlink" width="46" height="46.031" viewBox="0 0 46 46.031">
  <defs>
    <style>
      .cls-1 {
        fill: #e3e3dd;
        fill-opacity: 0;
        stroke: #3d3935;
        stroke-linejoin: round;
        stroke-width: 1px;
        opacity: 0.3;
      }

      .cls-1, .cls-2 {
        fill-rule: evenodd;
      }

      .cls-2 {
        fill: #cacaca;
        opacity: 0.6;
        filter: url(#filter);
      }
    </style>
    <filter id="filter" x="1145" y="854" width="18" height="12" filterUnits="userSpaceOnUse">
      <feFlood result="flood" flood-color="#3d3935"/>
      <feComposite result="composite" operator="in" in2="SourceGraphic"/>
      <feBlend result="blend" in2="SourceGraphic"/>
    </filter>
  </defs>
  <path id="Shape_34_copy_16" data-name="Shape 34 copy 16" class="cls-1" d="M1153.4,837.634c-10.18.129-22.51,6.045-22.91,21.864s10.58,23.274,23.71,23.151a1.3,1.3,0,0,1-.24-0.043c12.88-.617,21.99-7.66,21.53-23.879-0.38-13.446-11.53-20.513-22.18-21.061C1152.76,837.638,1153.95,837.627,1153.4,837.634Z" transform="translate(-1130 -837.125)"/>
  <path class="cls-2" d="M1155.72,854.7c-0.42-.539.32-1.024,0.74-0.486a69.509,69.509,0,0,0,6.06,5.06c0.33,0.231.68,0.572,0.35,0.957-1.47,1.014-5.16,4.477-6.41,5.632-0.5.385-1.18-.1-0.68-0.56,3.55-3.313,6.07-5.636,6.48-5.4a50.375,50.375,0,0,1-6.54-5.2l6.65,4.827c-6.65-.77-10.23.462-16.88,0.462-0.66,0-.66.78,0,0.857,6.65,0,10.31-1.231,16.88-.538,0.66,0.077.66-.7,0-0.781" transform="translate(-1130 -837.125)"/>
</svg>
